<?xml version="1.0" encoding="utf-8"?>
<!-- Generator: Adobe Illustrator 18.1.1, SVG Export Plug-In . SVG Version: 6.00 Build 0)  -->
<svg version="1.1" xmlns="http://www.w3.org/2000/svg" xmlns:xlink="http://www.w3.org/1999/xlink" x="0px" y="0px"
	 viewBox="0 0 247.741 34.667" enable-background="new 0 0 247.741 34.667" xml:space="preserve">
<g id="Layer_2" display="none">
</g>
<g id="Layer_3">
</g>
<g id="Layer_1">
	<g>
		<g>
			<polyline fill="none" stroke="#B37876" stroke-width="7" stroke-miterlimit="10" points="245.446,5.894 230.355,5.894 
				230.355,17.768 237.9,17.768 237.9,29.682 245.446,29.682 			"/>
		</g>
		<g>
			<polyline fill="none" stroke="#B37876" stroke-width="7" stroke-miterlimit="10" points="48.993,5.864 33.902,5.864 
				33.902,17.738 41.448,17.738 41.448,29.652 48.993,29.652 			"/>
		</g>
		<g>
			<polyline fill="none" stroke="#B37876" stroke-width="7" stroke-miterlimit="10" points="179.367,20.191 179.367,29.603 
				192.075,29.603 192.075,20.191 			"/>
			<polyline fill="none" stroke="#B37876" stroke-width="7" stroke-miterlimit="10" points="192.075,14.829 192.075,5.814 
				179.367,5.814 179.367,14.829 			"/>
		</g>
		<g>
			<polyline fill="none" stroke="#B37876" stroke-width="7" stroke-miterlimit="10" points="100.173,5.844 85.479,5.844 
				85.479,17.758 100.173,17.758 			"/>
			<line fill="none" stroke="#B37876" stroke-width="7" stroke-miterlimit="10" x1="83.493" y1="29.672" x2="100.173" y2="29.672"/>
			<line fill="none" stroke="#B37876" stroke-width="7" stroke-miterlimit="10" x1="91.833" y1="17.758" x2="91.833" y2="29.672"/>
		</g>
		<polyline fill="none" stroke="#B37876" stroke-width="7" stroke-miterlimit="10" points="5.43,32.412 5.43,5.844 19.33,5.844 
			19.33,32.412 		"/>
		<polyline fill="none" stroke="#B37876" stroke-width="7" stroke-miterlimit="10" points="139.529,3.233 139.529,29.801 
			125.629,29.801 125.629,3.233 		"/>
		<g>
			<line fill="none" stroke="#B37876" stroke-width="7" stroke-miterlimit="10" x1="57.096" y1="29.672" x2="73.935" y2="29.672"/>
			<polyline fill="none" stroke="#B37876" stroke-width="7" stroke-miterlimit="10" points="73.935,17.758 59.638,17.758 
				59.638,5.844 73.935,5.844 			"/>
		</g>
		<g>
			<line fill="none" stroke="#B37876" stroke-width="7" stroke-miterlimit="10" x1="159.757" y1="32.283" x2="159.757" y2="4.504"/>
			<line fill="none" stroke="#B37876" stroke-width="7" stroke-miterlimit="10" x1="169.288" y1="6.092" x2="150.226" y2="6.092"/>
		</g>
		<g>
			<polyline fill="none" stroke="#B37876" stroke-width="7" stroke-miterlimit="10" points="218.506,29.801 207.386,29.801 
				207.386,3.233 			"/>
			
				<line fill="none" stroke="#B37876" stroke-width="7" stroke-miterlimit="10" x1="218.506" y1="17.708" x2="207.386" y2="17.708"/>
		</g>
	</g>
</g>
<g id="Layer_4">
</g>
</svg>
