<?xml version="1.0" encoding="utf-8"?>
<!-- Generator: Adobe Illustrator 18.1.1, SVG Export Plug-In . SVG Version: 6.00 Build 0)  -->
<svg version="1.1" xmlns="http://www.w3.org/2000/svg" xmlns:xlink="http://www.w3.org/1999/xlink" x="0px" y="0px"
	 viewBox="0 0 348.333 16.333" enable-background="new 0 0 348.333 16.333" xml:space="preserve">
<g id="Layer_2" display="none">
</g>
<g id="Layer_3">
</g>
<g id="Layer_1">
	<g>
		
			<ellipse fill="none" stroke="#836672" stroke-linecap="round" stroke-linejoin="round" stroke-miterlimit="10" cx="79.465" cy="8.316" rx="2.944" ry="2.479"/>
		
			<ellipse fill="none" stroke="#836672" stroke-linecap="round" stroke-linejoin="round" stroke-miterlimit="10" cx="88.561" cy="8.316" rx="2.944" ry="2.479"/>
		<path fill="none" stroke="#836672" stroke-linecap="round" stroke-linejoin="round" stroke-miterlimit="10" d="M9.469,2.706
			c0,0-2.094,3.537-2.094,5.552s2.094,5.552,2.094,5.552s-5.552-3.031-5.552-5.552S9.469,2.706,9.469,2.706z"/>
		<path fill="none" stroke="#836672" stroke-linecap="round" stroke-linejoin="round" stroke-miterlimit="10" d="M340.489,13.81
			c0,0,2.094-3.537,2.094-5.552s-2.094-5.552-2.094-5.552s5.552,3.031,5.552,5.552S340.489,13.81,340.489,13.81z"/>
		
			<line fill="none" stroke="#836672" stroke-linecap="round" stroke-linejoin="round" stroke-miterlimit="10" x1="81.07" y1="8.316" x2="86.957" y2="8.316"/>
		
			<line fill="none" stroke="#836672" stroke-linecap="round" stroke-linejoin="round" stroke-miterlimit="10" x1="71.973" y1="8.316" x2="77.861" y2="8.316"/>
		
			<ellipse fill="none" stroke="#836672" stroke-linecap="round" stroke-linejoin="round" stroke-miterlimit="10" cx="97.658" cy="8.316" rx="2.944" ry="2.479"/>
		
			<ellipse fill="none" stroke="#836672" stroke-linecap="round" stroke-linejoin="round" stroke-miterlimit="10" cx="106.755" cy="8.316" rx="2.944" ry="2.479"/>
		
			<line fill="none" stroke="#836672" stroke-linecap="round" stroke-linejoin="round" stroke-miterlimit="10" x1="99.263" y1="8.316" x2="105.15" y2="8.316"/>
		
			<line fill="none" stroke="#836672" stroke-linecap="round" stroke-linejoin="round" stroke-miterlimit="10" x1="90.166" y1="8.316" x2="96.054" y2="8.316"/>
		
			<ellipse fill="none" stroke="#836672" stroke-linecap="round" stroke-linejoin="round" stroke-miterlimit="10" cx="115.851" cy="8.316" rx="2.944" ry="2.479"/>
		
			<ellipse fill="none" stroke="#836672" stroke-linecap="round" stroke-linejoin="round" stroke-miterlimit="10" cx="124.948" cy="8.316" rx="2.944" ry="2.479"/>
		
			<line fill="none" stroke="#836672" stroke-linecap="round" stroke-linejoin="round" stroke-miterlimit="10" x1="117.456" y1="8.316" x2="123.343" y2="8.316"/>
		
			<line fill="none" stroke="#836672" stroke-linecap="round" stroke-linejoin="round" stroke-miterlimit="10" x1="108.359" y1="8.316" x2="114.247" y2="8.316"/>
		
			<ellipse fill="none" stroke="#836672" stroke-linecap="round" stroke-linejoin="round" stroke-miterlimit="10" cx="134.044" cy="8.316" rx="2.944" ry="2.479"/>
		
			<ellipse fill="none" stroke="#836672" stroke-linecap="round" stroke-linejoin="round" stroke-miterlimit="10" cx="143.141" cy="8.316" rx="2.944" ry="2.479"/>
		
			<line fill="none" stroke="#836672" stroke-linecap="round" stroke-linejoin="round" stroke-miterlimit="10" x1="135.649" y1="8.316" x2="141.536" y2="8.316"/>
		
			<line fill="none" stroke="#836672" stroke-linecap="round" stroke-linejoin="round" stroke-miterlimit="10" x1="126.552" y1="8.316" x2="132.44" y2="8.316"/>
		
			<ellipse fill="none" stroke="#836672" stroke-linecap="round" stroke-linejoin="round" stroke-miterlimit="10" cx="15.789" cy="8.316" rx="2.944" ry="2.479"/>
		
			<ellipse fill="none" stroke="#836672" stroke-linecap="round" stroke-linejoin="round" stroke-miterlimit="10" cx="24.886" cy="8.316" rx="2.944" ry="2.479"/>
		
			<line fill="none" stroke="#836672" stroke-linecap="round" stroke-linejoin="round" stroke-miterlimit="10" x1="17.394" y1="8.316" x2="23.281" y2="8.316"/>
		
			<line fill="none" stroke="#836672" stroke-linecap="round" stroke-linejoin="round" stroke-miterlimit="10" x1="8.297" y1="8.316" x2="14.185" y2="8.316"/>
		
			<ellipse fill="none" stroke="#836672" stroke-linecap="round" stroke-linejoin="round" stroke-miterlimit="10" cx="33.982" cy="8.316" rx="2.944" ry="2.479"/>
		
			<ellipse fill="none" stroke="#836672" stroke-linecap="round" stroke-linejoin="round" stroke-miterlimit="10" cx="43.079" cy="8.316" rx="2.944" ry="2.479"/>
		
			<line fill="none" stroke="#836672" stroke-linecap="round" stroke-linejoin="round" stroke-miterlimit="10" x1="35.587" y1="8.316" x2="41.474" y2="8.316"/>
		
			<line fill="none" stroke="#836672" stroke-linecap="round" stroke-linejoin="round" stroke-miterlimit="10" x1="26.49" y1="8.316" x2="32.378" y2="8.316"/>
		
			<ellipse fill="none" stroke="#836672" stroke-linecap="round" stroke-linejoin="round" stroke-miterlimit="10" cx="52.175" cy="8.316" rx="2.944" ry="2.479"/>
		
			<ellipse fill="none" stroke="#836672" stroke-linecap="round" stroke-linejoin="round" stroke-miterlimit="10" cx="61.272" cy="8.316" rx="2.944" ry="2.479"/>
		
			<line fill="none" stroke="#836672" stroke-linecap="round" stroke-linejoin="round" stroke-miterlimit="10" x1="53.78" y1="8.316" x2="59.667" y2="8.316"/>
		
			<line fill="none" stroke="#836672" stroke-linecap="round" stroke-linejoin="round" stroke-miterlimit="10" x1="44.683" y1="8.316" x2="50.571" y2="8.316"/>
		
			<ellipse fill="none" stroke="#836672" stroke-linecap="round" stroke-linejoin="round" stroke-miterlimit="10" cx="70.369" cy="8.316" rx="2.944" ry="2.479"/>
		
			<line fill="none" stroke="#836672" stroke-linecap="round" stroke-linejoin="round" stroke-miterlimit="10" x1="62.876" y1="8.316" x2="68.764" y2="8.316"/>
		
			<ellipse fill="none" stroke="#836672" stroke-linecap="round" stroke-linejoin="round" stroke-miterlimit="10" cx="152.237" cy="8.316" rx="2.944" ry="2.479"/>
		
			<ellipse fill="none" stroke="#836672" stroke-linecap="round" stroke-linejoin="round" stroke-miterlimit="10" cx="161.334" cy="8.316" rx="2.944" ry="2.479"/>
		
			<line fill="none" stroke="#836672" stroke-linecap="round" stroke-linejoin="round" stroke-miterlimit="10" x1="153.842" y1="8.316" x2="159.729" y2="8.316"/>
		
			<line fill="none" stroke="#836672" stroke-linecap="round" stroke-linejoin="round" stroke-miterlimit="10" x1="144.745" y1="8.316" x2="150.633" y2="8.316"/>
		
			<ellipse fill="none" stroke="#836672" stroke-linecap="round" stroke-linejoin="round" stroke-miterlimit="10" cx="170.431" cy="8.316" rx="2.944" ry="2.479"/>
		
			<ellipse fill="none" stroke="#836672" stroke-linecap="round" stroke-linejoin="round" stroke-miterlimit="10" cx="179.527" cy="8.316" rx="2.944" ry="2.479"/>
		
			<line fill="none" stroke="#836672" stroke-linecap="round" stroke-linejoin="round" stroke-miterlimit="10" x1="172.035" y1="8.316" x2="177.923" y2="8.316"/>
		
			<line fill="none" stroke="#836672" stroke-linecap="round" stroke-linejoin="round" stroke-miterlimit="10" x1="162.938" y1="8.316" x2="168.826" y2="8.316"/>
		
			<ellipse fill="none" stroke="#836672" stroke-linecap="round" stroke-linejoin="round" stroke-miterlimit="10" cx="188.624" cy="8.316" rx="2.944" ry="2.479"/>
		
			<ellipse fill="none" stroke="#836672" stroke-linecap="round" stroke-linejoin="round" stroke-miterlimit="10" cx="197.72" cy="8.316" rx="2.944" ry="2.479"/>
		
			<line fill="none" stroke="#836672" stroke-linecap="round" stroke-linejoin="round" stroke-miterlimit="10" x1="190.228" y1="8.316" x2="196.116" y2="8.316"/>
		
			<line fill="none" stroke="#836672" stroke-linecap="round" stroke-linejoin="round" stroke-miterlimit="10" x1="181.132" y1="8.316" x2="187.019" y2="8.316"/>
		
			<ellipse fill="none" stroke="#836672" stroke-linecap="round" stroke-linejoin="round" stroke-miterlimit="10" cx="206.817" cy="8.316" rx="2.944" ry="2.479"/>
		
			<ellipse fill="none" stroke="#836672" stroke-linecap="round" stroke-linejoin="round" stroke-miterlimit="10" cx="215.913" cy="8.316" rx="2.944" ry="2.479"/>
		
			<line fill="none" stroke="#836672" stroke-linecap="round" stroke-linejoin="round" stroke-miterlimit="10" x1="208.421" y1="8.316" x2="214.309" y2="8.316"/>
		
			<line fill="none" stroke="#836672" stroke-linecap="round" stroke-linejoin="round" stroke-miterlimit="10" x1="199.325" y1="8.316" x2="205.212" y2="8.316"/>
		
			<ellipse fill="none" stroke="#836672" stroke-linecap="round" stroke-linejoin="round" stroke-miterlimit="10" cx="225.01" cy="8.316" rx="2.944" ry="2.479"/>
		
			<ellipse fill="none" stroke="#836672" stroke-linecap="round" stroke-linejoin="round" stroke-miterlimit="10" cx="234.106" cy="8.316" rx="2.944" ry="2.479"/>
		
			<line fill="none" stroke="#836672" stroke-linecap="round" stroke-linejoin="round" stroke-miterlimit="10" x1="226.614" y1="8.316" x2="232.502" y2="8.316"/>
		
			<line fill="none" stroke="#836672" stroke-linecap="round" stroke-linejoin="round" stroke-miterlimit="10" x1="217.518" y1="8.316" x2="223.405" y2="8.316"/>
		
			<ellipse fill="none" stroke="#836672" stroke-linecap="round" stroke-linejoin="round" stroke-miterlimit="10" cx="243.203" cy="8.316" rx="2.944" ry="2.479"/>
		
			<ellipse fill="none" stroke="#836672" stroke-linecap="round" stroke-linejoin="round" stroke-miterlimit="10" cx="252.299" cy="8.316" rx="2.944" ry="2.479"/>
		
			<line fill="none" stroke="#836672" stroke-linecap="round" stroke-linejoin="round" stroke-miterlimit="10" x1="244.807" y1="8.316" x2="250.695" y2="8.316"/>
		
			<line fill="none" stroke="#836672" stroke-linecap="round" stroke-linejoin="round" stroke-miterlimit="10" x1="235.711" y1="8.316" x2="241.598" y2="8.316"/>
		
			<ellipse fill="none" stroke="#836672" stroke-linecap="round" stroke-linejoin="round" stroke-miterlimit="10" cx="261.396" cy="8.316" rx="2.944" ry="2.479"/>
		
			<ellipse fill="none" stroke="#836672" stroke-linecap="round" stroke-linejoin="round" stroke-miterlimit="10" cx="270.493" cy="8.316" rx="2.944" ry="2.479"/>
		
			<line fill="none" stroke="#836672" stroke-linecap="round" stroke-linejoin="round" stroke-miterlimit="10" x1="263.001" y1="8.316" x2="268.888" y2="8.316"/>
		
			<line fill="none" stroke="#836672" stroke-linecap="round" stroke-linejoin="round" stroke-miterlimit="10" x1="253.904" y1="8.316" x2="259.792" y2="8.316"/>
		
			<ellipse fill="none" stroke="#836672" stroke-linecap="round" stroke-linejoin="round" stroke-miterlimit="10" cx="279.589" cy="8.316" rx="2.944" ry="2.479"/>
		
			<ellipse fill="none" stroke="#836672" stroke-linecap="round" stroke-linejoin="round" stroke-miterlimit="10" cx="288.686" cy="8.316" rx="2.944" ry="2.479"/>
		
			<line fill="none" stroke="#836672" stroke-linecap="round" stroke-linejoin="round" stroke-miterlimit="10" x1="281.194" y1="8.316" x2="287.081" y2="8.316"/>
		
			<line fill="none" stroke="#836672" stroke-linecap="round" stroke-linejoin="round" stroke-miterlimit="10" x1="272.097" y1="8.316" x2="277.985" y2="8.316"/>
		
			<ellipse fill="none" stroke="#836672" stroke-linecap="round" stroke-linejoin="round" stroke-miterlimit="10" cx="297.782" cy="8.316" rx="2.944" ry="2.479"/>
		
			<ellipse fill="none" stroke="#836672" stroke-linecap="round" stroke-linejoin="round" stroke-miterlimit="10" cx="306.879" cy="8.316" rx="2.944" ry="2.479"/>
		
			<line fill="none" stroke="#836672" stroke-linecap="round" stroke-linejoin="round" stroke-miterlimit="10" x1="299.387" y1="8.316" x2="305.274" y2="8.316"/>
		
			<line fill="none" stroke="#836672" stroke-linecap="round" stroke-linejoin="round" stroke-miterlimit="10" x1="290.29" y1="8.316" x2="296.178" y2="8.316"/>
		
			<ellipse fill="none" stroke="#836672" stroke-linecap="round" stroke-linejoin="round" stroke-miterlimit="10" cx="315.975" cy="8.316" rx="2.944" ry="2.479"/>
		
			<ellipse fill="none" stroke="#836672" stroke-linecap="round" stroke-linejoin="round" stroke-miterlimit="10" cx="325.072" cy="8.316" rx="2.944" ry="2.479"/>
		
			<line fill="none" stroke="#836672" stroke-linecap="round" stroke-linejoin="round" stroke-miterlimit="10" x1="317.58" y1="8.316" x2="323.467" y2="8.316"/>
		
			<line fill="none" stroke="#836672" stroke-linecap="round" stroke-linejoin="round" stroke-miterlimit="10" x1="308.483" y1="8.316" x2="314.371" y2="8.316"/>
		
			<ellipse fill="none" stroke="#836672" stroke-linecap="round" stroke-linejoin="round" stroke-miterlimit="10" cx="334.168" cy="8.316" rx="2.944" ry="2.479"/>
		
			<line fill="none" stroke="#836672" stroke-linecap="round" stroke-linejoin="round" stroke-miterlimit="10" x1="335.773" y1="8.316" x2="341.66" y2="8.316"/>
		
			<line fill="none" stroke="#836672" stroke-linecap="round" stroke-linejoin="round" stroke-miterlimit="10" x1="326.676" y1="8.316" x2="332.564" y2="8.316"/>
	</g>
</g>
<g id="Layer_4">
</g>
</svg>
