<?xml version="1.0" encoding="utf-8"?>
<!-- Generator: Adobe Illustrator 18.1.1, SVG Export Plug-In . SVG Version: 6.00 Build 0)  -->
<svg version="1.1" xmlns="http://www.w3.org/2000/svg" xmlns:xlink="http://www.w3.org/1999/xlink" x="0px" y="0px"
	 viewBox="0 0 272.897 41.333" enable-background="new 0 0 272.897 41.333" xml:space="preserve">
<g id="Layer_2" display="none">
</g>
<g id="Layer_3">
</g>
<g id="Layer_1">
	<g>
		<g>
			<polyline fill="none" stroke="#B37876" stroke-width="7" stroke-miterlimit="10" points="23.704,6.342 13.454,6.342 
				13.454,21.342 			"/>
			<polyline fill="none" stroke="#B37876" stroke-width="7" stroke-miterlimit="10" points="23.704,21.342 5.204,21.342 
				5.204,36.392 23.704,36.392 			"/>
		</g>
		<g>
			<polyline fill="none" stroke="#B37876" stroke-width="7" stroke-miterlimit="10" points="57.184,6.392 38.184,6.392 
				38.184,21.342 47.684,21.342 47.684,36.342 57.184,36.342 			"/>
		</g>
		<g>
			<polyline fill="none" stroke="#B37876" stroke-width="7" stroke-miterlimit="10" points="67.264,6.414 80.264,6.414 
				80.264,36.369 67.264,36.369 			"/>
			<line fill="none" stroke="#B37876" stroke-width="7" stroke-miterlimit="10" x1="87.264" y1="21.392" x2="80.264" y2="21.392"/>
		</g>
		<g>
			<polyline fill="none" stroke="#B37876" stroke-width="7" stroke-miterlimit="10" points="102.393,2.942 102.393,36.392 
				114.893,36.392 			"/>
			
				<line fill="none" stroke="#B37876" stroke-width="7" stroke-miterlimit="10" x1="114.893" y1="21.342" x2="102.393" y2="21.342"/>
		</g>
		<g>
			<polyline fill="none" stroke="#B37876" stroke-width="7" stroke-miterlimit="10" points="128.923,24.467 128.923,36.317 
				144.923,36.317 144.923,24.467 			"/>
			<polyline fill="none" stroke="#B37876" stroke-width="7" stroke-miterlimit="10" points="144.923,17.717 144.923,6.367 
				128.923,6.367 128.923,17.717 			"/>
		</g>
		<g>
			<polyline fill="none" stroke="#B37876" stroke-width="7" stroke-miterlimit="10" points="160.103,6.392 170.103,6.392 
				170.103,36.342 			"/>
			
				<line fill="none" stroke="#B37876" stroke-width="7" stroke-miterlimit="10" x1="160.103" y1="36.342" x2="180.103" y2="36.342"/>
		</g>
		<g>
			<line fill="none" stroke="#B37876" stroke-width="7" stroke-miterlimit="10" x1="190.833" y1="6.364" x2="209.833" y2="6.364"/>
			
				<line fill="none" stroke="#B37876" stroke-width="7" stroke-miterlimit="10" x1="190.833" y1="21.392" x2="209.833" y2="21.392"/>
			
				<line fill="none" stroke="#B37876" stroke-width="7" stroke-miterlimit="10" x1="190.833" y1="36.369" x2="209.833" y2="36.369"/>
		</g>
		<g>
			<line fill="none" stroke="#B37876" stroke-width="7" stroke-miterlimit="10" x1="229.062" y1="2.814" x2="229.062" y2="26.764"/>
			
				<line fill="none" stroke="#B37876" stroke-width="7" stroke-miterlimit="10" x1="240.562" y1="36.419" x2="219.562" y2="36.419"/>
		</g>
		<g>
			<polyline fill="none" stroke="#B37876" stroke-width="7" stroke-miterlimit="10" points="270.792,6.367 252.292,6.367 
				252.292,21.367 270.792,21.367 			"/>
			
				<line fill="none" stroke="#B37876" stroke-width="7" stroke-miterlimit="10" x1="249.792" y1="36.367" x2="270.792" y2="36.367"/>
			
				<line fill="none" stroke="#B37876" stroke-width="7" stroke-miterlimit="10" x1="260.292" y1="21.367" x2="260.292" y2="36.367"/>
		</g>
	</g>
</g>
<g id="Layer_4">
</g>
</svg>
